<svg
  xmlns="http://www.w3.org/2000/svg"
  className="iconsvg"
  viewBox="0 0 24 24"
  fill="none"
>
  <path
    d="M12 21.849C11.6572 21.8493 11.3201 21.7615 11.021 21.594L10.721 21.423C8.38028 20.1053 6.43183 18.1892 5.07515 15.8708C3.71847 13.5524 3.00231 10.9152 3 8.22903L3 8.08403C3.00068 7.72962 3.09523 7.38172 3.27405 7.07573C3.45287 6.76974 3.70956 6.51658 4.018 6.34203L11.018 2.40403C11.3174 2.23675 11.6546 2.14893 11.9975 2.14893C12.3404 2.14893 12.6776 2.23675 12.977 2.40403L19.977 6.34103C20.2864 6.51518 20.5441 6.76825 20.7238 7.07444C20.9035 7.38064 20.9988 7.729 21 8.08403V8.22903C20.9991 10.9159 20.2839 13.5542 18.9277 15.8737C17.5715 18.1932 15.623 20.1104 13.282 21.429L12.982 21.599C12.6816 21.7653 12.3434 21.8514 12 21.849V21.849ZM12 4.14903L5 8.08403V8.22903C5.00194 10.5607 5.62331 12.8501 6.80054 14.8628C7.97777 16.8755 9.6686 18.5393 11.7 19.684L12 19.854L12.3 19.684C14.3314 18.5393 16.0222 16.8755 17.1995 14.8628C18.3767 12.8501 18.9981 10.5607 19 8.22903V8.08403L12 4.14903Z"
    fill="black"
  />
</svg>